<svg width="179" height="48" viewBox="0 0 179 48" fill="none" xmlns="http://www.w3.org/2000/svg">
<rect opacity="0.1" x="0.75" y="0.75" width="177.5" height="46.5" rx="4.25" stroke="#150C01" stroke-width="1.5"/>
<path d="M72.875 28.5234C72.4635 29.0599 71.8932 29.4661 71.1641 29.7422C70.4349 30.0182 69.6068 30.1562 68.6797 30.1562C67.7266 30.1562 66.8828 29.9401 66.1484 29.5078C65.4141 29.0755 64.8464 28.4583 64.4453 27.6562C64.0495 26.849 63.8438 25.9089 63.8281 24.8359V23.9453C63.8281 22.2266 64.2396 20.8854 65.0625 19.9219C65.8854 18.9531 67.0339 18.4688 68.5078 18.4688C69.7734 18.4688 70.7786 18.7812 71.5234 19.4062C72.2682 20.0312 72.7161 20.9323 72.8672 22.1094H70.9297C70.7109 20.7396 69.9167 20.0547 68.5469 20.0547C67.6615 20.0547 66.987 20.375 66.5234 21.0156C66.0651 21.651 65.8281 22.5859 65.8125 23.8203V24.6953C65.8125 25.9245 66.0703 26.8802 66.5859 27.5625C67.1068 28.2396 67.8281 28.5781 68.75 28.5781C69.7604 28.5781 70.4792 28.349 70.9062 27.8906V25.6641H68.5625V24.1641H72.875V28.5234ZM74.5078 25.6953C74.5078 24.8672 74.6719 24.1224 75 23.4609C75.3281 22.7943 75.7891 22.2839 76.3828 21.9297C76.9766 21.5703 77.6589 21.3906 78.4297 21.3906C79.5703 21.3906 80.4948 21.7578 81.2031 22.4922C81.9167 23.2266 82.3021 24.2005 82.3594 25.4141L82.3672 25.8594C82.3672 26.6927 82.2057 27.4375 81.8828 28.0938C81.5651 28.75 81.1068 29.2578 80.5078 29.6172C79.9141 29.9766 79.2266 30.1562 78.4453 30.1562C77.2526 30.1562 76.2969 29.7604 75.5781 28.9688C74.8646 28.1719 74.5078 27.112 74.5078 25.7891V25.6953ZM76.4062 25.8594C76.4062 26.7292 76.5859 27.4115 76.9453 27.9062C77.3047 28.3958 77.8047 28.6406 78.4453 28.6406C79.0859 28.6406 79.5833 28.3906 79.9375 27.8906C80.2969 27.3906 80.4766 26.6589 80.4766 25.6953C80.4766 24.8411 80.2917 24.1641 79.9219 23.6641C79.5573 23.1641 79.0599 22.9141 78.4297 22.9141C77.8099 22.9141 77.3177 23.1615 76.9531 23.6562C76.5885 24.1458 76.4062 24.8802 76.4062 25.8594ZM83.6172 25.6953C83.6172 24.8672 83.7812 24.1224 84.1094 23.4609C84.4375 22.7943 84.8984 22.2839 85.4922 21.9297C86.0859 21.5703 86.7682 21.3906 87.5391 21.3906C88.6797 21.3906 89.6042 21.7578 90.3125 22.4922C91.026 23.2266 91.4115 24.2005 91.4688 25.4141L91.4766 25.8594C91.4766 26.6927 91.3151 27.4375 90.9922 28.0938C90.6745 28.75 90.2161 29.2578 89.6172 29.6172C89.0234 29.9766 88.3359 30.1562 87.5547 30.1562C86.362 30.1562 85.4062 29.7604 84.6875 28.9688C83.974 28.1719 83.6172 27.112 83.6172 25.7891V25.6953ZM85.5156 25.8594C85.5156 26.7292 85.6953 27.4115 86.0547 27.9062C86.4141 28.3958 86.9141 28.6406 87.5547 28.6406C88.1953 28.6406 88.6927 28.3906 89.0469 27.8906C89.4062 27.3906 89.5859 26.6589 89.5859 25.6953C89.5859 24.8411 89.401 24.1641 89.0312 23.6641C88.6667 23.1641 88.1693 22.9141 87.5391 22.9141C86.9193 22.9141 86.4271 23.1615 86.0625 23.6562C85.6979 24.1458 85.5156 24.8802 85.5156 25.8594ZM92.75 25.7109C92.75 24.3984 93.0573 23.3516 93.6719 22.5703C94.2917 21.7839 95.112 21.3906 96.1328 21.3906C97.0964 21.3906 97.8542 21.7266 98.4062 22.3984L98.4922 21.5469H100.203V29.7422C100.203 30.8516 99.8568 31.7266 99.1641 32.3672C98.4766 33.0078 97.5469 33.3281 96.375 33.3281C95.7552 33.3281 95.1484 33.1979 94.5547 32.9375C93.9661 32.6823 93.5182 32.3464 93.2109 31.9297L94.1094 30.7891C94.6927 31.4818 95.4115 31.8281 96.2656 31.8281C96.8958 31.8281 97.3932 31.6562 97.7578 31.3125C98.1224 30.974 98.3047 30.474 98.3047 29.8125V29.2422C97.7578 29.8516 97.0286 30.1562 96.1172 30.1562C95.1276 30.1562 94.3177 29.763 93.6875 28.9766C93.0625 28.1901 92.75 27.1016 92.75 25.7109ZM94.6406 25.875C94.6406 26.724 94.8125 27.3932 95.1562 27.8828C95.5052 28.3672 95.987 28.6094 96.6016 28.6094C97.3672 28.6094 97.9349 28.2812 98.3047 27.625V23.9062C97.9453 23.2656 97.3828 22.9453 96.6172 22.9453C95.9922 22.9453 95.5052 23.1927 95.1562 23.6875C94.8125 24.1823 94.6406 24.9115 94.6406 25.875ZM104.18 30H102.281V18H104.18V30ZM109.977 30.1562C108.773 30.1562 107.797 29.7786 107.047 29.0234C106.302 28.263 105.93 27.2526 105.93 25.9922V25.7578C105.93 24.9141 106.091 24.1615 106.414 23.5C106.742 22.8333 107.201 22.3151 107.789 21.9453C108.378 21.5755 109.034 21.3906 109.758 21.3906C110.909 21.3906 111.797 21.7578 112.422 22.4922C113.052 23.2266 113.367 24.2656 113.367 25.6094V26.375H107.844C107.901 27.0729 108.133 27.625 108.539 28.0312C108.951 28.4375 109.466 28.6406 110.086 28.6406C110.956 28.6406 111.664 28.2891 112.211 27.5859L113.234 28.5625C112.896 29.0677 112.443 29.4609 111.875 29.7422C111.312 30.0182 110.68 30.1562 109.977 30.1562ZM109.75 22.9141C109.229 22.9141 108.807 23.0964 108.484 23.4609C108.167 23.8255 107.964 24.3333 107.875 24.9844H111.492V24.8438C111.451 24.2083 111.281 23.7292 110.984 23.4062C110.688 23.0781 110.276 22.9141 109.75 22.9141ZM120.992 25.7734V30H119.016V18.625H123.367C124.638 18.625 125.646 18.9557 126.391 19.6172C127.141 20.2786 127.516 21.1536 127.516 22.2422C127.516 23.3568 127.148 24.224 126.414 24.8438C125.685 25.4635 124.661 25.7734 123.344 25.7734H120.992ZM120.992 24.1875H123.367C124.07 24.1875 124.607 24.0234 124.977 23.6953C125.346 23.362 125.531 22.8828 125.531 22.2578C125.531 21.6432 125.344 21.1536 124.969 20.7891C124.594 20.4193 124.078 20.2292 123.422 20.2188H120.992V24.1875ZM131.086 30H129.188V18H131.086V30ZM138.211 30C138.128 29.8385 138.055 29.5755 137.992 29.2109C137.388 29.8411 136.648 30.1562 135.773 30.1562C134.924 30.1562 134.232 29.9141 133.695 29.4297C133.159 28.9453 132.891 28.3464 132.891 27.6328C132.891 26.7318 133.224 26.0417 133.891 25.5625C134.562 25.0781 135.521 24.8359 136.766 24.8359H137.93V24.2812C137.93 23.8438 137.807 23.4948 137.562 23.2344C137.318 22.9688 136.945 22.8359 136.445 22.8359C136.013 22.8359 135.659 22.9453 135.383 23.1641C135.107 23.3776 134.969 23.651 134.969 23.9844H133.07C133.07 23.5208 133.224 23.0885 133.531 22.6875C133.839 22.2812 134.255 21.9635 134.781 21.7344C135.312 21.5052 135.904 21.3906 136.555 21.3906C137.544 21.3906 138.333 21.6406 138.922 22.1406C139.51 22.6354 139.812 23.3333 139.828 24.2344V28.0469C139.828 28.8073 139.935 29.4141 140.148 29.8672V30H138.211ZM136.125 28.6328C136.5 28.6328 136.852 28.5417 137.18 28.3594C137.513 28.1771 137.763 27.9323 137.93 27.625V26.0312H136.906C136.203 26.0312 135.674 26.1536 135.32 26.3984C134.966 26.6432 134.789 26.9896 134.789 27.4375C134.789 27.8021 134.909 28.0938 135.148 28.3125C135.393 28.526 135.719 28.6328 136.125 28.6328ZM144.648 27.2812L146.367 21.5469H148.391L145.031 31.2812C144.516 32.7031 143.641 33.4141 142.406 33.4141C142.13 33.4141 141.826 33.3672 141.492 33.2734V31.8047L141.852 31.8281C142.331 31.8281 142.69 31.7396 142.93 31.5625C143.174 31.3906 143.367 31.099 143.508 30.6875L143.781 29.9609L140.812 21.5469H142.859L144.648 27.2812Z" fill="#150C01"/>
<g clip-path="url(#clip0_2_153)">
<path d="M47.4248 24.0001L31.4113 11.5775C30.7981 12.057 30.3851 12.8019 30.3851 13.69L30.3851 34.3102C30.3851 35.1983 30.7981 35.9432 31.4113 36.4221L47.4248 24.0001Z" fill="#9DC6FB"/>
<path d="M52.2717 21.674L48.397 19.4367L45.0009 19.8614L43.8344 24L44.4268 27.9623L48.397 28.5627L52.2717 26.3261C54.0626 25.2922 54.0626 22.7079 52.2717 21.674Z" fill="#FFE07D"/>
<path d="M48.3967 19.4368L34.414 11.3639C33.3923 10.7744 32.2254 10.9413 31.4115 11.5774L43.8341 24.0001L48.3967 19.4368Z" fill="#DD5790"/>
<path d="M48.3967 28.5628L43.8341 24.0001L31.4115 36.4221C32.2254 37.059 33.3923 37.2258 34.414 36.6363L48.3967 28.5628Z" fill="#95D6A4"/>
<path d="M33.4125 13.69C33.4125 13.5095 33.4292 13.3353 33.4616 13.1679L31.4114 11.5775C30.7983 12.0568 30.3851 12.8017 30.3851 13.69L30.3851 34.3102C30.3851 35.1979 30.7984 35.9429 31.4114 36.4221L33.4616 34.8318C33.4292 34.6644 33.4125 34.4901 33.4125 34.3102V13.69Z" fill="#80B4FB"/>
<path d="M34.5922 11.4661L34.4143 11.3636C33.3926 10.7745 32.2255 10.9414 31.4115 11.5775L33.4146 13.5806C33.447 12.7405 33.8509 12.0368 34.4384 11.5775H34.4389C34.4886 11.5388 34.5399 11.5012 34.5922 11.4661Z" fill="#DA387D"/>
<path d="M34.4389 36.4221L34.4394 36.4211L34.4384 36.4221C33.8504 35.9628 33.447 35.2586 33.4146 34.419L31.4115 36.4221C32.2255 37.0588 33.3926 37.2256 34.4143 36.6361L34.5922 36.5335C34.5399 36.4985 34.4886 36.4608 34.4389 36.4221Z" fill="#78C2A4"/>
</g>
<defs>
<clipPath id="clip0_2_153">
<rect width="26" height="26" fill="white" transform="matrix(1 0 0 -1 29 37)"/>
</clipPath>
</defs>
</svg>
